<?xml version="1.0" encoding="UTF-8" standalone="no"?>
<!DOCTYPE svg PUBLIC "-//W3C//DTD SVG 1.1//EN" "http://www.w3.org/Graphics/SVG/1.1/DTD/svg11.dtd">
<svg width="100%" height="100%" viewBox="0 0 1413 134" version="1.1" xmlns="http://www.w3.org/2000/svg" xmlns:xlink="http://www.w3.org/1999/xlink" xml:space="preserve" xmlns:serif="http://www.serif.com/" style="fill-rule:evenodd;clip-rule:evenodd;stroke-miterlimit:10;">
    <g id="Artboard1" transform="matrix(8.78814,0,0,1.03397,155.853,8.35286)">
        <rect x="-17.735" y="-8.078" width="160.693" height="129.512" style="fill:none;"/>
        <clipPath id="_clip1">
            <rect x="-17.735" y="-8.078" width="160.693" height="129.512"/>
        </clipPath>
        <g clip-path="url(#_clip1)">
            <g transform="matrix(0.11379,0,0,0.967142,-17.6663,-7.29617)">
                <circle cx="58.7" cy="58.7" r="58.7"/>
                <g>
                    <circle cx="58.7" cy="58.5" r="43.7" style="fill:none;stroke:white;stroke-width:6px;"/>
                    <g>
                        <path d="M94.7,47.8C99.4,49.4 104.5,46.9 106.1,42.2C107.7,37.5 105.2,32.4 100.5,30.8C95.8,29.2 90.7,31.7 89.1,36.4C87.5,41.1 90,46.2 94.7,47.8Z" style="fill:white;fill-rule:nonzero;"/>
                        <path d="M97.6,39.4L67.5,64.4" style="fill:none;fill-rule:nonzero;stroke:white;stroke-width:6px;"/>
                    </g>
                    <g>
                        <path d="M77.6,91C77.2,95.9 80.8,100.3 85.8,100.8C90.8,101.2 95.1,97.6 95.6,92.6C96,87.7 92.4,83.3 87.4,82.8C82.4,82.4 78,86 77.6,91Z" style="fill:white;fill-rule:nonzero;"/>
                        <path d="M86.5,91.8L67.5,64.4" style="fill:none;fill-rule:nonzero;stroke:white;stroke-width:6px;"/>
                    </g>
                    <path d="M60,69.3C62.7,73.5 68.3,74.7 72.4,72C76.6,69.3 77.8,63.7 75.1,59.6C72.4,55.4 66.8,54.2 62.7,56.9C58.5,59.5 57.3,65.1 60,69.3Z" style="fill:white;fill-rule:nonzero;"/>
                    <g>
                        <path d="M21.2,61.4C16.9,58.9 11.4,60.3 8.9,64.5C6.4,68.8 7.8,74.3 12,76.8C16.3,79.3 21.8,77.9 24.3,73.7C26.8,69.5 25.4,64 21.2,61.4Z" style="fill:white;fill-rule:nonzero;"/>
                        <path d="M16.6,69.1L67.5,64.4" style="fill:none;fill-rule:nonzero;stroke:white;stroke-width:6px;"/>
                    </g>
                </g>
            </g>
            <g transform="matrix(1.14032,0,0,9.69204,-175.937,-244.356)">
                <g transform="matrix(12,0,0,12,154.409,34.6693)">
                    <path d="M0.499,-0.201C0.499,-0.407 0.182,-0.409 0.182,-0.546C0.182,-0.611 0.233,-0.656 0.31,-0.656C0.357,-0.656 0.414,-0.634 0.45,-0.605L0.481,-0.689C0.44,-0.718 0.381,-0.742 0.313,-0.742C0.18,-0.742 0.087,-0.649 0.087,-0.534C0.087,-0.344 0.404,-0.334 0.404,-0.188C0.404,-0.11 0.349,-0.067 0.266,-0.067C0.189,-0.067 0.106,-0.106 0.064,-0.143L0.058,-0.042C0.111,-0.007 0.193,0.019 0.261,0.019C0.41,0.019 0.499,-0.079 0.499,-0.201Z" style="fill-rule:nonzero;"/>
                </g>
                <g transform="matrix(12,0,0,12,160.937,34.6693)">
                    <path d="M0.099,0.236C0.129,0.233 0.169,0.232 0.204,0.232C0.22,0.183 0.252,0.109 0.266,0.073L0.514,-0.515C0.484,-0.512 0.447,-0.511 0.409,-0.511C0.388,-0.449 0.361,-0.378 0.334,-0.31L0.273,-0.159L0.129,-0.517L0.024,-0.504C0.049,-0.456 0.081,-0.386 0.109,-0.32C0.114,-0.309 0.175,-0.174 0.177,-0.17C0.195,-0.127 0.21,-0.088 0.224,-0.052L0.099,0.236Z" style="fill-rule:nonzero;"/>
                </g>
                <g transform="matrix(12,0,0,12,167.345,34.6693)">
                    <path d="M0.537,0C0.535,-0.029 0.533,-0.075 0.533,-0.114L0.533,-0.342C0.533,-0.458 0.477,-0.524 0.37,-0.524C0.302,-0.524 0.226,-0.478 0.185,-0.412L0.178,-0.514C0.147,-0.511 0.121,-0.509 0.086,-0.509C0.09,-0.461 0.092,-0.384 0.092,-0.32L0.092,-0.189C0.092,-0.124 0.09,-0.048 0.086,0L0.191,0C0.187,-0.03 0.186,-0.075 0.186,-0.114L0.186,-0.298C0.186,-0.363 0.268,-0.44 0.345,-0.44C0.413,-0.44 0.438,-0.392 0.438,-0.322L0.438,-0.189C0.438,-0.124 0.436,-0.048 0.431,0L0.537,0Z" style="fill-rule:nonzero;"/>
                </g>
                <g transform="matrix(12,0,0,12,174.809,34.6693)">
                    <path d="M0.492,-0.474C0.448,-0.505 0.388,-0.524 0.326,-0.524C0.168,-0.524 0.055,-0.397 0.055,-0.239C0.055,-0.094 0.165,0.019 0.316,0.019C0.388,0.019 0.43,0.004 0.486,-0.031L0.491,-0.129C0.436,-0.082 0.392,-0.064 0.328,-0.064C0.233,-0.064 0.148,-0.131 0.148,-0.256C0.148,-0.358 0.219,-0.439 0.321,-0.439C0.374,-0.439 0.424,-0.423 0.465,-0.39L0.492,-0.474Z" style="fill-rule:nonzero;"/>
                </g>
                <g transform="matrix(12,0,0,12,181.397,34.6693)">
                    <path d="M0.357,-0.095C0.336,-0.081 0.303,-0.069 0.275,-0.069C0.236,-0.069 0.215,-0.085 0.215,-0.138L0.215,-0.431L0.35,-0.431C0.35,-0.468 0.351,-0.49 0.353,-0.513L0.215,-0.513L0.215,-0.644L0.132,-0.622L0.122,-0.513L0.055,-0.513L0.03,-0.431L0.121,-0.431L0.121,-0.131C0.121,-0.038 0.161,0.015 0.254,0.015C0.288,0.015 0.33,0.005 0.353,-0.013L0.357,-0.095Z" style="fill-rule:nonzero;"/>
                </g>
                <g transform="matrix(12,0,0,12,186.221,34.6693)">
                    <path d="M0.537,0C0.535,-0.029 0.533,-0.075 0.533,-0.114L0.533,-0.342C0.533,-0.458 0.477,-0.524 0.37,-0.524C0.303,-0.524 0.227,-0.479 0.186,-0.413L0.186,-0.678C0.186,-0.718 0.188,-0.775 0.191,-0.801C0.16,-0.795 0.121,-0.791 0.086,-0.788C0.09,-0.739 0.092,-0.672 0.092,-0.604L0.092,-0.183C0.092,-0.117 0.09,-0.048 0.086,0L0.191,0C0.187,-0.03 0.186,-0.069 0.186,-0.108L0.186,-0.298C0.186,-0.363 0.268,-0.44 0.345,-0.44C0.413,-0.44 0.438,-0.392 0.438,-0.322L0.438,-0.189C0.438,-0.124 0.436,-0.048 0.431,0L0.537,0Z" style="fill-rule:nonzero;"/>
                </g>
                <g transform="matrix(12,0,0,12,193.685,34.6693)">
                    <path d="M0.207,-0.697C0.207,-0.729 0.182,-0.759 0.145,-0.759C0.106,-0.759 0.08,-0.728 0.08,-0.691C0.08,-0.66 0.104,-0.63 0.142,-0.63C0.181,-0.63 0.207,-0.661 0.207,-0.697ZM0.191,0C0.188,-0.029 0.186,-0.069 0.186,-0.108L0.186,-0.393C0.186,-0.428 0.188,-0.488 0.191,-0.514C0.16,-0.511 0.121,-0.509 0.085,-0.509C0.09,-0.461 0.092,-0.384 0.092,-0.32L0.092,-0.183C0.092,-0.117 0.09,-0.048 0.085,0L0.191,0Z" style="fill-rule:nonzero;"/>
                </g>
                <g transform="matrix(12,0,0,12,197.021,34.6693)">
                    <path d="M0.537,0C0.535,-0.029 0.533,-0.075 0.533,-0.114L0.533,-0.342C0.533,-0.458 0.477,-0.524 0.37,-0.524C0.302,-0.524 0.226,-0.478 0.185,-0.412L0.178,-0.514C0.147,-0.511 0.121,-0.509 0.086,-0.509C0.09,-0.461 0.092,-0.384 0.092,-0.32L0.092,-0.189C0.092,-0.124 0.09,-0.048 0.086,0L0.191,0C0.187,-0.03 0.186,-0.075 0.186,-0.114L0.186,-0.298C0.186,-0.363 0.268,-0.44 0.345,-0.44C0.413,-0.44 0.438,-0.392 0.438,-0.322L0.438,-0.189C0.438,-0.124 0.436,-0.048 0.431,0L0.537,0Z" style="fill-rule:nonzero;"/>
                </g>
                <g transform="matrix(12,0,0,12,204.485,34.6693)">
                    <path d="M0.393,-0.334C0.393,-0.272 0.346,-0.22 0.274,-0.22C0.207,-0.22 0.161,-0.26 0.161,-0.336C0.161,-0.395 0.209,-0.45 0.28,-0.45C0.349,-0.45 0.393,-0.405 0.393,-0.334ZM0.522,0.06C0.522,-0.032 0.439,-0.07 0.3,-0.07L0.274,-0.071C0.185,-0.071 0.16,-0.083 0.16,-0.11C0.16,-0.125 0.175,-0.142 0.2,-0.157C0.22,-0.15 0.242,-0.147 0.266,-0.147C0.389,-0.147 0.481,-0.229 0.481,-0.344C0.481,-0.385 0.461,-0.438 0.418,-0.476C0.433,-0.51 0.459,-0.524 0.511,-0.517L0.516,-0.601C0.437,-0.612 0.387,-0.582 0.365,-0.508C0.342,-0.518 0.315,-0.523 0.284,-0.523C0.162,-0.523 0.071,-0.435 0.071,-0.326C0.071,-0.268 0.1,-0.215 0.148,-0.182C0.104,-0.157 0.077,-0.129 0.077,-0.09C0.077,-0.057 0.102,-0.033 0.138,-0.017C0.068,0.018 0.027,0.059 0.027,0.116C0.027,0.189 0.103,0.248 0.244,0.248C0.404,0.248 0.522,0.161 0.522,0.06ZM0.249,0.174C0.159,0.174 0.116,0.14 0.116,0.102C0.116,0.07 0.145,0.034 0.214,0.004C0.234,0.006 0.257,0.008 0.277,0.008L0.297,0.008C0.389,0.008 0.434,0.03 0.434,0.073C0.434,0.128 0.36,0.174 0.249,0.174Z" style="fill-rule:nonzero;"/>
                </g>
                <g transform="matrix(12,0,0,12,213.953,34.6693)">
                    <path d="M0.517,-0.73C0.456,-0.727 0.386,-0.725 0.314,-0.725C0.242,-0.725 0.172,-0.727 0.112,-0.73C0.117,-0.681 0.119,-0.542 0.119,-0.476L0.119,-0.248C0.119,-0.181 0.117,-0.049 0.112,0L0.217,0C0.214,-0.029 0.214,-0.108 0.214,-0.148L0.214,-0.332L0.459,-0.33C0.459,-0.358 0.46,-0.389 0.462,-0.412L0.214,-0.411L0.214,-0.579C0.214,-0.595 0.214,-0.626 0.215,-0.647C0.245,-0.648 0.283,-0.648 0.314,-0.648C0.387,-0.648 0.45,-0.647 0.51,-0.646C0.511,-0.677 0.513,-0.702 0.517,-0.73Z" style="fill-rule:nonzero;"/>
                </g>
                <g transform="matrix(12,0,0,12,220.145,34.6693)">
                    <path d="M0.562,-0.265C0.562,-0.405 0.466,-0.524 0.315,-0.524C0.158,-0.524 0.055,-0.398 0.055,-0.239C0.055,-0.1 0.151,0.019 0.301,0.019C0.459,0.019 0.562,-0.106 0.562,-0.265ZM0.468,-0.252C0.468,-0.148 0.407,-0.064 0.306,-0.064C0.211,-0.064 0.148,-0.13 0.148,-0.255C0.148,-0.358 0.212,-0.44 0.311,-0.44C0.399,-0.44 0.468,-0.373 0.468,-0.252Z" style="fill-rule:nonzero;"/>
                </g>
                <g transform="matrix(12,0,0,12,227.549,34.6693)">
                    <path d="M0.538,0C0.533,-0.051 0.53,-0.121 0.53,-0.185L0.53,-0.394C0.53,-0.433 0.532,-0.485 0.536,-0.514C0.505,-0.511 0.466,-0.509 0.429,-0.509C0.434,-0.46 0.436,-0.385 0.436,-0.322L0.436,-0.192C0.436,-0.127 0.35,-0.064 0.291,-0.064C0.214,-0.064 0.184,-0.109 0.184,-0.196L0.184,-0.394C0.184,-0.433 0.185,-0.485 0.188,-0.514C0.157,-0.511 0.121,-0.509 0.083,-0.509C0.088,-0.46 0.09,-0.385 0.09,-0.322L0.09,-0.177C0.09,-0.042 0.154,0.02 0.267,0.02C0.32,0.02 0.398,-0.018 0.439,-0.085L0.451,0L0.538,0Z" style="fill-rule:nonzero;"/>
                </g>
                <g transform="matrix(12,0,0,12,235.025,34.6693)">
                    <path d="M0.537,0C0.535,-0.029 0.533,-0.075 0.533,-0.114L0.533,-0.342C0.533,-0.458 0.477,-0.524 0.37,-0.524C0.302,-0.524 0.226,-0.478 0.185,-0.412L0.178,-0.514C0.147,-0.511 0.121,-0.509 0.086,-0.509C0.09,-0.461 0.092,-0.384 0.092,-0.32L0.092,-0.189C0.092,-0.124 0.09,-0.048 0.086,0L0.191,0C0.187,-0.03 0.186,-0.075 0.186,-0.114L0.186,-0.298C0.186,-0.363 0.268,-0.44 0.345,-0.44C0.413,-0.44 0.438,-0.392 0.438,-0.322L0.438,-0.189C0.438,-0.124 0.436,-0.048 0.431,0L0.537,0Z" style="fill-rule:nonzero;"/>
                </g>
                <g transform="matrix(12,0,0,12,242.489,34.6693)">
                    <path d="M0.32,-0.441C0.371,-0.441 0.412,-0.422 0.44,-0.393L0.44,-0.143C0.414,-0.095 0.362,-0.063 0.305,-0.063C0.22,-0.063 0.148,-0.125 0.148,-0.246C0.148,-0.353 0.212,-0.441 0.32,-0.441ZM0.318,-0.524C0.166,-0.524 0.054,-0.397 0.054,-0.234C0.054,-0.092 0.144,0.019 0.288,0.019C0.351,0.019 0.414,-0.015 0.447,-0.058L0.455,0L0.542,0C0.537,-0.049 0.535,-0.114 0.535,-0.177L0.535,-0.678C0.535,-0.718 0.536,-0.775 0.539,-0.801C0.508,-0.795 0.47,-0.791 0.433,-0.788C0.438,-0.739 0.439,-0.672 0.439,-0.604L0.44,-0.486C0.411,-0.508 0.365,-0.524 0.318,-0.524Z" style="fill-rule:nonzero;"/>
                </g>
                <g transform="matrix(12,0,0,12,250.001,34.6693)">
                    <path d="M0.229,-0.061C0.166,-0.061 0.141,-0.095 0.141,-0.139C0.141,-0.196 0.184,-0.243 0.313,-0.243C0.33,-0.243 0.346,-0.242 0.364,-0.24L0.361,-0.191C0.358,-0.116 0.303,-0.061 0.229,-0.061ZM0.371,-0.077C0.376,-0.015 0.414,0.013 0.455,0.013C0.481,0.013 0.502,0.005 0.52,-0.003L0.529,-0.069C0.513,-0.063 0.498,-0.06 0.485,-0.06C0.46,-0.06 0.45,-0.073 0.452,-0.107L0.458,-0.327C0.462,-0.446 0.398,-0.524 0.27,-0.524C0.205,-0.524 0.146,-0.506 0.091,-0.474L0.113,-0.392C0.149,-0.418 0.203,-0.44 0.255,-0.44C0.334,-0.44 0.368,-0.401 0.366,-0.32L0.366,-0.302C0.349,-0.303 0.333,-0.304 0.316,-0.304C0.138,-0.304 0.05,-0.235 0.05,-0.134C0.05,-0.045 0.111,0.015 0.209,0.015C0.281,0.015 0.342,-0.023 0.371,-0.077Z" style="fill-rule:nonzero;"/>
                </g>
                <g transform="matrix(12,0,0,12,256.649,34.6693)">
                    <path d="M0.357,-0.095C0.336,-0.081 0.303,-0.069 0.275,-0.069C0.236,-0.069 0.215,-0.085 0.215,-0.138L0.215,-0.431L0.35,-0.431C0.35,-0.468 0.351,-0.49 0.353,-0.513L0.215,-0.513L0.215,-0.644L0.132,-0.622L0.122,-0.513L0.055,-0.513L0.03,-0.431L0.121,-0.431L0.121,-0.131C0.121,-0.038 0.161,0.015 0.254,0.015C0.288,0.015 0.33,0.005 0.353,-0.013L0.357,-0.095Z" style="fill-rule:nonzero;"/>
                </g>
                <g transform="matrix(12,0,0,12,261.473,34.6693)">
                    <path d="M0.207,-0.697C0.207,-0.729 0.182,-0.759 0.145,-0.759C0.106,-0.759 0.08,-0.728 0.08,-0.691C0.08,-0.66 0.104,-0.63 0.142,-0.63C0.181,-0.63 0.207,-0.661 0.207,-0.697ZM0.191,0C0.188,-0.029 0.186,-0.069 0.186,-0.108L0.186,-0.393C0.186,-0.428 0.188,-0.488 0.191,-0.514C0.16,-0.511 0.121,-0.509 0.085,-0.509C0.09,-0.461 0.092,-0.384 0.092,-0.32L0.092,-0.183C0.092,-0.117 0.09,-0.048 0.085,0L0.191,0Z" style="fill-rule:nonzero;"/>
                </g>
                <g transform="matrix(12,0,0,12,264.809,34.6693)">
                    <path d="M0.562,-0.265C0.562,-0.405 0.466,-0.524 0.315,-0.524C0.158,-0.524 0.055,-0.398 0.055,-0.239C0.055,-0.1 0.151,0.019 0.301,0.019C0.459,0.019 0.562,-0.106 0.562,-0.265ZM0.468,-0.252C0.468,-0.148 0.407,-0.064 0.306,-0.064C0.211,-0.064 0.148,-0.13 0.148,-0.255C0.148,-0.358 0.212,-0.44 0.311,-0.44C0.399,-0.44 0.468,-0.373 0.468,-0.252Z" style="fill-rule:nonzero;"/>
                </g>
                <g transform="matrix(12,0,0,12,272.213,34.6693)">
                    <path d="M0.537,0C0.535,-0.029 0.533,-0.075 0.533,-0.114L0.533,-0.342C0.533,-0.458 0.477,-0.524 0.37,-0.524C0.302,-0.524 0.226,-0.478 0.185,-0.412L0.178,-0.514C0.147,-0.511 0.121,-0.509 0.086,-0.509C0.09,-0.461 0.092,-0.384 0.092,-0.32L0.092,-0.189C0.092,-0.124 0.09,-0.048 0.086,0L0.191,0C0.187,-0.03 0.186,-0.075 0.186,-0.114L0.186,-0.298C0.186,-0.363 0.268,-0.44 0.345,-0.44C0.413,-0.44 0.438,-0.392 0.438,-0.322L0.438,-0.189C0.438,-0.124 0.436,-0.048 0.431,0L0.537,0Z" style="fill-rule:nonzero;"/>
                </g>
            </g>
        </g>
    </g>
</svg>
